<?xml version="1.0" encoding="UTF-8"?>
<svg viewBox="0 0 200 200" xmlns="http://www.w3.org/2000/svg">
  <defs>
    <!-- Gradients -->
    <linearGradient id="primaryGradient" x1="0%" y1="0%" x2="100%" y2="100%">
      <stop offset="0%" style="stop-color:#3B82F6;stop-opacity:1" />
      <stop offset="100%" style="stop-color:#1E40AF;stop-opacity:1" />
    </linearGradient>
    
    <linearGradient id="accentGradient" x1="0%" y1="0%" x2="100%" y2="100%">
      <stop offset="0%" style="stop-color:#10B981;stop-opacity:1" />
      <stop offset="100%" style="stop-color:#059669;stop-opacity:1" />
    </linearGradient>
    
    <linearGradient id="warningGradient" x1="0%" y1="0%" x2="100%" y2="100%">
      <stop offset="0%" style="stop-color:#F59E0B;stop-opacity:1" />
      <stop offset="100%" style="stop-color:#D97706;stop-opacity:1" />
    </linearGradient>

    <!-- Drop Shadow Filter -->
    <filter id="dropShadow" x="-20%" y="-20%" width="140%" height="140%">
      <feDropShadow dx="2" dy="4" stdDeviation="3" flood-opacity="0.3"/>
    </filter>
  </defs>

  <!-- Outer Circle Background -->
  <circle cx="100" cy="100" r="95" fill="url(#primaryGradient)" filter="url(#dropShadow)" opacity="0.1"/>
  
  <!-- Main Circular Flow -->
  <circle cx="100" cy="100" r="75" fill="none" stroke="url(#primaryGradient)" stroke-width="3" stroke-dasharray="5,5" opacity="0.4">
    <animateTransform
      attributeName="transform"
      attributeType="XML"
      type="rotate"
      from="0 100 100"
      to="360 100 100"
      dur="20s"
      repeatCount="indefinite"/>
  </circle>

  <!-- Central EA Symbol -->
  <g transform="translate(100,100)">
    <!-- Robot Head -->
    <rect x="-12" y="-15" width="24" height="20" rx="4" fill="url(#primaryGradient)" filter="url(#dropShadow)"/>
    
    <!-- Robot Eyes -->
    <circle cx="-6" cy="-8" r="2" fill="#FFFFFF"/>
    <circle cx="6" cy="-8" r="2" fill="#FFFFFF"/>
    <circle cx="-6" cy="-8" r="1" fill="url(#accentGradient)"/>
    <circle cx="6" cy="-8" r="1" fill="url(#accentGradient)"/>
    
    <!-- Robot Antenna -->
    <line x1="0" y1="-15" x2="0" y2="-22" stroke="url(#primaryGradient)" stroke-width="2"/>
    <circle cx="0" cy="-22" r="2" fill="url(#accentGradient)"/>
    
    <!-- Currency Symbol -->
    <text x="0" y="15" text-anchor="middle" font-family="Arial, sans-serif" font-size="16" font-weight="bold" fill="url(#accentGradient)">$</text>
  </g>

  <!-- Lifecycle Stage Indicators -->
  <!-- IDEA (Top) -->
  <g transform="translate(100,25)">
    <circle r="8" fill="url(#warningGradient)" filter="url(#dropShadow)"/>
    <text x="0" y="3" text-anchor="middle" font-family="Arial, sans-serif" font-size="10" fill="white">💡</text>
  </g>
  
  <!-- DEMO (Top Right) -->
  <g transform="translate(153,47)">
    <circle r="8" fill="url(#accentGradient)" filter="url(#dropShadow)"/>
    <text x="0" y="3" text-anchor="middle" font-family="Arial, sans-serif" font-size="10" fill="white">🧪</text>
  </g>
  
  <!-- PRODUCTION (Right) -->
  <g transform="translate(175,100)">
    <circle r="8" fill="url(#accentGradient)" filter="url(#dropShadow)"/>
    <text x="0" y="3" text-anchor="middle" font-family="Arial, sans-serif" font-size="10" fill="white">🚀</text>
  </g>
  
  <!-- PAUSE (Bottom Right) -->
  <g transform="translate(153,153)">
    <circle r="8" fill="url(#warningGradient)" filter="url(#dropShadow)"/>
    <text x="0" y="3" text-anchor="middle" font-family="Arial, sans-serif" font-size="10" fill="white">⏸️</text>
  </g>
  
  <!-- RETIRED (Bottom) -->
  <g transform="translate(100,175)">
    <circle r="8" fill="#6B7280" filter="url(#dropShadow)"/>
    <text x="0" y="3" text-anchor="middle" font-family="Arial, sans-serif" font-size="10" fill="white">📦</text>
  </g>
  
  <!-- Trading Chart Elements -->
  <g transform="translate(50,60)" opacity="0.6">
    <polyline points="0,20 5,15 10,18 15,10 20,12" fill="none" stroke="url(#accentGradient)" stroke-width="2"/>
    <circle cx="20" cy="12" r="2" fill="url(#accentGradient)"/>
  </g>
  
  <g transform="translate(130,140)" opacity="0.6">
    <polyline points="0,10 5,15 10,8 15,12 20,5" fill="none" stroke="url(#accentGradient)" stroke-width="2"/>
    <circle cx="20" cy="5" r="2" fill="url(#accentGradient)"/>
  </g>

  <!-- Directional Arrows -->
  <g stroke="url(#primaryGradient)" stroke-width="2" fill="url(#primaryGradient)" opacity="0.7">
    <!-- Arrow from IDEA to DEMO -->
    <path d="M 120 35 L 135 45 L 130 50 M 135 45 L 130 40" stroke-linecap="round"/>
    
    <!-- Arrow from DEMO to PRODUCTION -->
    <path d="M 165 60 L 170 85 L 165 80 M 170 85 L 175 80" stroke-linecap="round"/>
    
    <!-- Arrow from PRODUCTION to PAUSE -->
    <path d="M 165 120 L 155 140 L 160 135 M 155 140 L 150 135" stroke-linecap="round"/>
    
    <!-- Arrow from PAUSE to RETIRED -->
    <path d="M 135 165 L 115 170 L 120 165 M 115 170 L 120 175" stroke-linecap="round"/>
  </g>

  <!-- Company Initials -->
  <g transform="translate(100,100)">
    <text x="0" y="-35" text-anchor="middle" font-family="Arial, sans-serif" font-size="12" font-weight="bold" fill="url(#primaryGradient)" opacity="0.8">EA</text>
    <text x="0" y="45" text-anchor="middle" font-family="Arial, sans-serif" font-size="8" font-weight="normal" fill="url(#primaryGradient)" opacity="0.6">LIFECYCLE</text>
  </g>
</svg> 