<svg width="1000" height="500" viewBox="0 0 1000 500" xmlns="http://www.w3.org/2000/svg">
  <defs>
    <linearGradient id="ideaGradient" x1="0%" y1="0%" x2="0%" y2="100%">
      <stop offset="0%" style="stop-color:#F59E0B;stop-opacity:1" />
      <stop offset="100%" style="stop-color:#D97706;stop-opacity:1" />
    </linearGradient>
    <linearGradient id="demoGradient" x1="0%" y1="0%" x2="0%" y2="100%">
      <stop offset="0%" style="stop-color:#3B82F6;stop-opacity:1" />
      <stop offset="100%" style="stop-color:#1E40AF;stop-opacity:1" />
    </linearGradient>
    <linearGradient id="productionGradient" x1="0%" y1="0%" x2="0%" y2="100%">
      <stop offset="0%" style="stop-color:#10B981;stop-opacity:1" />
      <stop offset="100%" style="stop-color:#059669;stop-opacity:1" />
    </linearGradient>
    <linearGradient id="pauseGradient" x1="0%" y1="0%" x2="0%" y2="100%">
      <stop offset="0%" style="stop-color:#F59E0B;stop-opacity:1" />
      <stop offset="100%" style="stop-color:#D97706;stop-opacity:1" />
    </linearGradient>
    <linearGradient id="retiredGradient" x1="0%" y1="0%" x2="0%" y2="100%">
      <stop offset="0%" style="stop-color:#6B7280;stop-opacity:1" />
      <stop offset="100%" style="stop-color:#4B5563;stop-opacity:1" />
    </linearGradient>
    <linearGradient id="bgGradient" x1="0%" y1="0%" x2="100%" y2="100%">
      <stop offset="0%" style="stop-color:#0F172A;stop-opacity:1" />
      <stop offset="100%" style="stop-color:#1E293B;stop-opacity:1" />
    </linearGradient>
    <filter id="glow">
      <feGaussianBlur stdDeviation="4" result="coloredBlur"/>
      <feMerge> 
        <feMergeNode in="coloredBlur"/>
        <feMergeNode in="SourceGraphic"/>
      </feMerge>
    </filter>
    <filter id="textShadow">
      <feDropShadow dx="0" dy="0" stdDeviation="3" flood-color="#000000" flood-opacity="0.8"/>
    </filter>
    <marker id="arrowhead" markerWidth="12" markerHeight="8" 
            refX="12" refY="4" orient="auto">
      <polygon points="0 0, 12 4, 0 8" fill="#60A5FA" />
    </marker>
  </defs>
  
  <!-- Flow Arrows -->
  <g stroke="#60A5FA" stroke-width="4" fill="none" marker-end="url(#arrowhead)" opacity="0.9">
    <!-- Idea to Demo (top to top-right) -->
    <path d="M 550 140 Q 620 150 660 190">
      <animate attributeName="stroke-dasharray" values="0,100;15,85;30,70" dur="2s" repeatCount="indefinite"/>
    </path>
    
    <!-- Demo to Production (top-right to bottom-right) -->
    <path d="M 660 240 Q 670 320 600 360">
      <animate attributeName="stroke-dasharray" values="0,100;15,85;30,70" dur="2.5s" repeatCount="indefinite"/>
    </path>
    
    <!-- Production to Pause (bottom-right to bottom-left) -->
    <path d="M 550 380 Q 470 400 420 380">
      <animate attributeName="stroke-dasharray" values="0,100;15,85;30,70" dur="1.8s" repeatCount="indefinite"/>
    </path>
    
    <!-- Pause to Retired (bottom-left to top-left) -->
    <path d="M 380 360 Q 340 320 340 240">
      <animate attributeName="stroke-dasharray" values="0,100;15,85;30,70" dur="2.2s" repeatCount="indefinite"/>
    </path>
    
    <!-- Retired to Idea (top-left to top) -->
    <path d="M 380 190 Q 440 150 490 140">
      <animate attributeName="stroke-dasharray" values="0,100;15,85;30,70" dur="2.3s" repeatCount="indefinite"/>
    </path>
    
    <!-- Return paths (inner circle) -->
    <!-- Demo back to Idea -->
    <path d="M 630 200 Q 580 170 530 160" stroke-dasharray="5,5" opacity="0.5">
      <animate attributeName="stroke-dashoffset" values="0;10" dur="3s" repeatCount="indefinite"/>
    </path>
    
    <!-- Production back to Demo -->
    <path d="M 590 340 Q 650 270 650 250" stroke-dasharray="5,5" opacity="0.5">
      <animate attributeName="stroke-dashoffset" values="0;10" dur="3.5s" repeatCount="indefinite"/>
    </path>
    
    <!-- Pause back to Production -->
    <path d="M 430 360 Q 520 350 570 350" stroke-dasharray="5,5" opacity="0.5">
      <animate attributeName="stroke-dashoffset" values="0;10" dur="2.8s" repeatCount="indefinite"/>
    </path>
  </g>
  
  <!-- Stage 1: Idea (Top) -->
  <g transform="translate(450, 90)">
    <circle cx="50" cy="50" r="45" fill="url(#ideaGradient)" stroke="#D97706" stroke-width="3" filter="url(#glow)"/>
    
    <!-- Lightbulb Icon -->
    <g transform="translate(35, 35)" fill="#FEF3C7">
      <circle cx="15" cy="12" r="8" fill="none" stroke="#FEF3C7" stroke-width="2"/>
      <path d="M15 20 L15 24 M11 22 L19 22" stroke="#FEF3C7" stroke-width="2" stroke-linecap="round"/>
      <path d="M15 4 L15 2 M7 7 L5.5 5.5 M23 7 L24.5 5.5 M4 15 L2 15 M28 15 L26 15" 
            stroke="#FEF3C7" stroke-width="1.5" stroke-linecap="round" transform="scale(0.6) translate(10, 5)"/>
    </g>
    
    <text x="50" y="115" text-anchor="middle" fill="#FFFFFF" font-family="Arial, sans-serif" font-size="14" font-weight="bold" filter="url(#textShadow)">
      💡 IDEA
    </text>
    <text x="50" y="130" text-anchor="middle" fill="#E5E7EB" font-family="Arial, sans-serif" font-size="10" filter="url(#textShadow)">
      Strategy Concept
    </text>
    <text x="50" y="142" text-anchor="middle" fill="#E5E7EB" font-family="Arial, sans-serif" font-size="10" filter="url(#textShadow)">
      Development
    </text>
  </g>
  
  <!-- Stage 2: Demo (Top-Right) -->
  <g transform="translate(610, 140)">
    <circle cx="50" cy="50" r="45" fill="url(#demoGradient)" stroke="#1E40AF" stroke-width="3" filter="url(#glow)"/>
    
    <!-- Testing Icon -->
    <g transform="translate(35, 35)" fill="#DBEAFE">
      <rect x="8" y="8" width="14" height="14" rx="2" fill="none" stroke="#DBEAFE" stroke-width="2"/>
      <path d="M12 12 L16 16 L20 10" stroke="#DBEAFE" stroke-width="2" fill="none" stroke-linecap="round" stroke-linejoin="round"/>
    </g>
    
    <text x="50" y="115" text-anchor="middle" fill="#FFFFFF" font-family="Arial, sans-serif" font-size="14" font-weight="bold" filter="url(#textShadow)">
      🧪 DEMO
    </text>
    <text x="50" y="130" text-anchor="middle" fill="#E5E7EB" font-family="Arial, sans-serif" font-size="10" filter="url(#textShadow)">
      Paper Trading
    </text>
    <text x="50" y="142" text-anchor="middle" fill="#E5E7EB" font-family="Arial, sans-serif" font-size="10" filter="url(#textShadow)">
      Testing &amp; Validation
    </text>
  </g>
  
  <!-- Stage 3: Production (Bottom-Right) -->
  <g transform="translate(550, 330)">
    <circle cx="50" cy="50" r="45" fill="url(#productionGradient)" stroke="#059669" stroke-width="3" filter="url(#glow)"/>
    
    <!-- Live Trading Icon -->
    <g transform="translate(35, 35)" fill="#D1FAE5">
      <circle cx="15" cy="15" r="10" fill="none" stroke="#D1FAE5" stroke-width="2"/>
      <circle cx="15" cy="15" r="3" fill="#D1FAE5">
        <animate attributeName="opacity" values="1;0.3;1" dur="2s" repeatCount="indefinite"/>
      </circle>
      <path d="M15 5 L15 25 M5 15 L25 15" stroke="#D1FAE5" stroke-width="1" opacity="0.6"/>
    </g>
    
    <text x="50" y="115" text-anchor="middle" fill="#FFFFFF" font-family="Arial, sans-serif" font-size="14" font-weight="bold" filter="url(#textShadow)">
      🚀 PRODUCTION
    </text>
    <text x="50" y="130" text-anchor="middle" fill="#E5E7EB" font-family="Arial, sans-serif" font-size="10" filter="url(#textShadow)">
      Live Trading
    </text>
    <text x="50" y="142" text-anchor="middle" fill="#E5E7EB" font-family="Arial, sans-serif" font-size="10" filter="url(#textShadow)">
      Real Money
    </text>
  </g>
  
  <!-- Stage 4: Pause/On Hold (Bottom-Left) -->
  <g transform="translate(340, 330)">
    <circle cx="50" cy="50" r="45" fill="url(#pauseGradient)" stroke="#D97706" stroke-width="3" filter="url(#glow)"/>
    
    <!-- Pause Icon -->
    <g transform="translate(35, 35)" fill="#FEF3C7">
      <rect x="10" y="8" width="4" height="14" rx="1" fill="#FEF3C7"/>
      <rect x="16" y="8" width="4" height="14" rx="1" fill="#FEF3C7"/>
    </g>
    
    <text x="50" y="115" text-anchor="middle" fill="#FFFFFF" font-family="Arial, sans-serif" font-size="14" font-weight="bold" filter="url(#textShadow)">
      ⏸️ PAUSE
    </text>
    <text x="50" y="130" text-anchor="middle" fill="#E5E7EB" font-family="Arial, sans-serif" font-size="10" filter="url(#textShadow)">
      On Hold
    </text>
    <text x="50" y="142" text-anchor="middle" fill="#E5E7EB" font-family="Arial, sans-serif" font-size="10" filter="url(#textShadow)">
      Temporary Stop
    </text>
  </g>
  
  <!-- Stage 5: Retired (Top-Left) -->
  <g transform="translate(290, 140)">
    <circle cx="50" cy="50" r="45" fill="url(#retiredGradient)" stroke="#4B5563" stroke-width="3" filter="url(#glow)"/>
    
    <!-- Archive Icon -->
    <g transform="translate(35, 35)" fill="#D1D5DB">
      <rect x="8" y="10" width="14" height="12" rx="1" fill="none" stroke="#D1D5DB" stroke-width="2"/>
      <path d="M11 14 L19 14" stroke="#D1D5DB" stroke-width="2" stroke-linecap="round"/>
      <path d="M12 10 L12 6 L18 6 L18 10" stroke="#D1D5DB" stroke-width="2" fill="none"/>
    </g>
    
    <text x="50" y="115" text-anchor="middle" fill="#FFFFFF" font-family="Arial, sans-serif" font-size="14" font-weight="bold" filter="url(#textShadow)">
      📦 RETIRED
    </text>
    <text x="50" y="130" text-anchor="middle" fill="#E5E7EB" font-family="Arial, sans-serif" font-size="10" filter="url(#textShadow)">
      Archived
    </text>
    <text x="50" y="142" text-anchor="middle" fill="#E5E7EB" font-family="Arial, sans-serif" font-size="10" filter="url(#textShadow)">
      End of Life
    </text>
  </g>
  
  <!-- Data Flow Indicators -->
  <g fill="#60A5FA" opacity="0.8">
    <!-- Moving dots along circular paths -->
    <circle cx="600" cy="165" r="3">
      <animateMotion dur="2s" repeatCount="indefinite">
        <path d="M 0 0 Q 30 15 60 35"/>
      </animateMotion>
    </circle>
    <circle cx="635" cy="270" r="3">
      <animateMotion dur="2.5s" repeatCount="indefinite">
        <path d="M 0 0 Q 15 40 -35 90"/>
      </animateMotion>
    </circle>
    <circle cx="500" cy="385" r="3">
      <animateMotion dur="1.8s" repeatCount="indefinite">
        <path d="M 0 0 Q -40 20 -100 0"/>
      </animateMotion>
    </circle>
    <circle cx="370" cy="310" r="3">
      <animateMotion dur="2.2s" repeatCount="indefinite">
        <path d="M 0 0 Q -25 -40 -30 -90"/>
      </animateMotion>
    </circle>
    <circle cx="415" cy="175" r="3">
      <animateMotion dur="2.3s" repeatCount="indefinite">
        <path d="M 0 0 Q 25 -15 85 -35"/>
      </animateMotion>
    </circle>
  </g>
</svg> 