<?xml version="1.0" encoding="UTF-8"?>
<svg viewBox="0 0 200 80" xmlns="http://www.w3.org/2000/svg">
  <defs>
    <linearGradient id="grad5" x1="0%" y1="0%" x2="100%" y2="0%">
      <stop offset="0%" style="stop-color:#1E40AF;stop-opacity:1" />
      <stop offset="50%" style="stop-color:#3B82F6;stop-opacity:1" />
      <stop offset="100%" style="stop-color:#60A5FA;stop-opacity:1" />
    </linearGradient>
  </defs>
  
  <!-- Trading Chart Background -->
  <rect x="10" y="10" width="180" height="60" fill="#F8FAFC" stroke="#E2E8F0" stroke-width="1" rx="4"/>
  
  <!-- Grid Lines -->
  <line x1="10" y1="25" x2="190" y2="25" stroke="#E2E8F0" stroke-width="0.5"/>
  <line x1="10" y1="40" x2="190" y2="40" stroke="#E2E8F0" stroke-width="0.5"/>
  <line x1="10" y1="55" x2="190" y2="55" stroke="#E2E8F0" stroke-width="0.5"/>
  
  <!-- Candlesticks -->
  <rect x="25" y="30" width="4" height="15" fill="#10B981"/>
  <rect x="35" y="25" width="4" height="20" fill="#EF4444"/>
  <rect x="45" y="35" width="4" height="10" fill="#10B981"/>
  <rect x="55" y="20" width="4" height="25" fill="#10B981"/>
  <rect x="65" y="40" width="4" height="8" fill="#EF4444"/>
  
  <!-- Trend Line -->
  <polyline points="20,50 40,35 60,30 80,25 100,20" fill="none" stroke="url(#grad5)" stroke-width="2"/>
  
  <!-- Logo Text -->
  <text x="120" y="30" font-family="Arial, sans-serif" font-size="20" font-weight="bold" fill="url(#grad5)">EA</text>
  <text x="145" y="30" font-family="Arial, sans-serif" font-size="20" font-weight="300" fill="#64748B">Lifecycle</text>
  <text x="120" y="45" font-family="Arial, sans-serif" font-size="8" font-weight="normal" fill="#64748B">Trading Strategy Management</text>
  
  <!-- Small Chart Icon -->
  <rect x="170" y="50" width="15" height="15" fill="none" stroke="url(#grad5)" stroke-width="1" rx="2"/>
  <polyline points="172,62 175,58 178,60 181,55" fill="none" stroke="url(#grad5)" stroke-width="1"/>
</svg> 